<svg width="1570" height="668" viewBox="0 0 1570 668" fill="none" xmlns="http://www.w3.org/2000/svg">
<path fill-rule="evenodd" clip-rule="evenodd" d="M764.789 18.7556C799.789 33.4876 840.984 34.8406 877.169 23.3217C898.475 16.5396 921.484 12.8388 945.485 12.8388C992.672 12.8388 1036.02 27.1429 1070.13 51.0443C1114.67 82.2535 1179.88 104.105 1233 92.4378C1254.27 87.7674 1276.54 85.2862 1299.47 85.2862C1448.88 85.2862 1570 190.6 1570 320.511C1570 450.422 1448.88 555.736 1299.47 555.736C1279.41 555.736 1259.86 553.838 1241.05 550.237C1204.38 543.22 1164.79 552.762 1133.52 573.149C1064.43 618.196 952.949 647.442 827.185 647.442C747.818 647.442 674.139 635.794 613.213 615.879C553.841 596.471 463.279 625.387 406.354 651.1C382.99 661.654 356.448 667.617 328.306 667.617C256.754 667.617 195.547 629.068 170.611 574.533C157.787 546.485 140.902 518.641 115.581 501.035C45.1317 452.05 0 376.653 0 292.082C0 144.445 137.544 24.7605 307.214 24.7605C349.212 24.7605 389.243 32.0938 425.706 45.3691C466.228 60.1223 513.852 52.3303 551.289 30.9266C585.491 11.373 626.405 0 670.368 0C704.204 0 736.235 6.73706 764.789 18.7556Z" fill="#FFE4EF"/>
</svg>
