<svg width="169" height="63" viewBox="0 0 169 63" fill="none" xmlns="http://www.w3.org/2000/svg">
<path d="M13.3582 51C13.9582 51 14.7382 50.96 15.6982 50.88C19.7382 50.48 22.9582 49.56 25.3582 48.12C28.4382 46.24 30.1582 43.6 30.5182 40.2C30.8782 36.72 29.7582 33.74 27.1582 31.26C25.1582 29.34 22.1582 27.22 18.1582 24.9C16.6382 23.98 15.2782 23.14 14.0782 22.38C12.2382 21.1 11.1582 19.48 10.8382 17.52C10.4782 15.2 11.1982 12.86 12.9982 10.5C14.2382 8.9 15.8182 7.68 17.7382 6.84C19.6582 6 21.5182 5.52 23.3182 5.4C25.5182 5.28 27.0582 5.66 27.9382 6.54C28.5782 7.22 27.9582 9.52 26.0782 13.44C24.5182 16.72 23.7382 19.1 23.7382 20.58C23.7382 21.14 23.9382 21.64 24.3382 22.08C24.7782 22.48 25.2982 22.68 25.8982 22.68C26.4582 22.68 26.9382 22.48 27.3382 22.08C27.7782 21.64 27.9982 21.14 27.9982 20.58C27.9982 19.66 28.6582 17.88 29.9782 15.24C31.1782 12.56 31.9182 10.7 32.1982 9.66C32.7982 7.1 32.4182 5.08 31.0582 3.6C29.2982 1.76 26.6382 0.939997 23.0782 1.14C20.6382 1.26 18.2382 1.88 15.8782 3C13.2782 4.2 11.1982 5.84 9.6382 7.92C7.0382 11.32 6.0382 14.74 6.6382 18.18C6.8782 19.82 7.4782 21.3 8.4382 22.62C9.2382 23.86 10.3382 24.96 11.7382 25.92C12.2582 26.28 13.6782 27.16 15.9982 28.56C19.6382 30.68 22.3782 32.6 24.2182 34.32C25.8182 35.84 26.5182 37.64 26.3182 39.72C26.0782 41.8 25.0182 43.38 23.1382 44.46C21.3782 45.58 18.7782 46.3 15.3382 46.62C11.4982 46.98 8.7782 46.42 7.1782 44.94C5.3782 43.22 4.6382 41.2 4.9582 38.88C5.1982 36.84 6.3782 35.26 8.4982 34.14C9.0182 33.86 9.3582 33.44 9.5182 32.88C9.7182 32.32 9.6782 31.78 9.3982 31.26C9.1182 30.74 8.6982 30.4 8.1382 30.24C7.5782 30.04 7.0382 30.08 6.5182 30.36C3.1182 32.16 1.1982 34.8 0.758203 38.28C0.518203 40.12 0.718203 41.88 1.3582 43.56C1.9582 45.28 2.9182 46.76 4.2382 48C6.3582 50 9.3982 51 13.3582 51ZM41.2812 49.56C44.6412 49.56 47.7212 48.44 50.5212 46.2C53.2412 44.04 55.4412 41 57.1212 37.08C57.3212 36.52 57.3012 35.98 57.0612 35.46C56.8612 34.9 56.5012 34.52 55.9812 34.32C55.4612 34.08 54.9212 34.08 54.3612 34.32C53.8012 34.52 53.4012 34.88 53.1612 35.4C51.8412 38.56 50.1412 41 48.0612 42.72C45.9812 44.44 43.7212 45.3 41.2812 45.3C39.8812 45.3 38.8012 44.52 38.0412 42.96C37.3212 41.52 37.2612 39.76 37.8612 37.68C38.5012 35.56 39.7212 33.3 41.5212 30.9C43.6012 28.18 45.3812 27.02 46.8612 27.42C47.5812 27.58 47.9812 28.08 48.0612 28.92C48.1812 29.76 47.7412 30.44 46.7412 30.96C46.2212 31.24 45.8612 31.66 45.6612 32.22C45.5012 32.78 45.5612 33.32 45.8412 33.84C46.1612 34.36 46.5812 34.72 47.1012 34.92C47.6612 35.08 48.2012 35.02 48.7212 34.74C50.0412 34.06 51.0012 33.14 51.6012 31.98C52.2012 30.9 52.4412 29.72 52.3212 28.44C52.1212 27.24 51.6812 26.18 51.0012 25.26C50.2412 24.3 49.2412 23.66 48.0012 23.34C46.4412 22.86 44.7812 23.06 43.0212 23.94C41.3812 24.74 39.7612 26.2 38.1612 28.32C36.2012 30.92 34.8412 33.42 34.0812 35.82C33.3212 38.18 33.0212 40.02 33.1812 41.34C33.3412 42.62 33.7012 43.8 34.2612 44.88C35.0212 46.36 36.0412 47.52 37.3212 48.36C38.5612 49.16 39.8812 49.56 41.2812 49.56ZM56.7452 48.72H57.0452C59.3652 48.6 62.0052 47.36 64.9652 45C65.0852 45.36 65.2452 45.76 65.4452 46.2C66.2852 47.48 67.7052 48.12 69.7052 48.12C72.2252 48.12 74.5052 47.18 76.5452 45.3C78.6252 43.46 80.6052 40.76 82.4852 37.2C82.7652 36.68 82.8052 36.14 82.6052 35.58C82.4452 35.02 82.1052 34.6 81.5852 34.32C81.0652 34.04 80.5252 34 79.9652 34.2C79.4052 34.36 78.9852 34.7 78.7052 35.22C75.6652 40.98 72.6652 43.86 69.7052 43.86C69.3052 43.86 69.0852 43.84 69.0452 43.8C68.9652 43.56 69.0452 42.94 69.2852 41.94C69.3652 41.7 69.4852 41.36 69.6452 40.92C69.8452 40.44 69.9652 40.14 70.0052 40.02C70.6452 39.3 71.0652 38.8 71.2652 38.52C73.0652 36.2 73.6852 34.42 73.1252 33.18C72.8452 32.7 72.4452 32.34 71.9252 32.1C72.4452 32.14 72.9052 32 73.3052 31.68C73.7452 31.36 74.0052 30.94 74.0852 30.42C74.5652 27.98 73.8652 26.16 71.9852 24.96C70.5852 24.08 68.8652 23.8 66.8252 24.12C64.8252 24.4 62.9052 25.2 61.0652 26.52C58.8652 28.12 56.7052 30.3 54.5852 33.06C52.1852 36.34 50.8652 39.22 50.6252 41.7C50.3852 43.66 50.9052 45.34 52.1852 46.74C53.3852 48.06 54.9052 48.72 56.7452 48.72ZM68.3252 28.26C68.8852 28.26 69.3252 28.36 69.6452 28.56C69.9252 28.64 70.0052 28.98 69.8852 29.58C69.6852 30.74 70.1252 31.54 71.2052 31.98H71.0252C70.1452 31.98 69.3252 32.48 68.5652 33.48C68.1252 34.04 67.6652 34.86 67.1852 35.94L66.8252 36.72C66.7852 36.84 66.7052 37.02 66.5852 37.26C66.5052 37.46 66.4252 37.62 66.3452 37.74C62.4252 42.1 59.2652 44.34 56.8652 44.46C56.2252 44.5 55.7052 44.3 55.3052 43.86C54.9452 43.42 54.7852 42.82 54.8252 42.06C54.9852 40.3 56.0052 38.2 57.8852 35.76C59.8052 33.28 61.7052 31.36 63.5852 30C65.1852 28.84 66.7652 28.26 68.3252 28.26ZM90.3668 47.7H90.9068H90.9668C93.4868 47.5 96.0268 46.36 98.5868 44.28C101.027 42.36 103.027 40.08 104.587 37.44C104.907 36.96 104.987 36.44 104.827 35.88C104.707 35.28 104.387 34.84 103.867 34.56C103.347 34.24 102.787 34.16 102.187 34.32C101.627 34.44 101.207 34.76 100.927 35.28C99.5668 37.52 97.9068 39.42 95.9468 40.98C94.0268 42.54 92.2868 43.36 90.7268 43.44H90.6068C90.1668 43.48 89.9068 43.46 89.8268 43.38C89.5468 42.5 90.0268 40.78 91.2668 38.22C92.8268 34.98 93.4468 32.48 93.1268 30.72C92.7268 28.48 91.0068 26.44 87.9668 24.6C88.1268 23.88 88.2068 23.38 88.2068 23.1C88.2868 21.54 87.7468 20.5 86.5868 19.98C85.9068 19.66 85.1868 19.66 84.4268 19.98C83.6668 20.26 83.0868 20.78 82.6868 21.54C82.0868 22.62 82.0068 23.74 82.4468 24.9C82.5668 25.22 82.7268 25.54 82.9268 25.86C80.6068 31.1 78.9668 34.66 78.0068 36.54C77.7668 37.06 77.7468 37.6 77.9468 38.16C78.1468 38.72 78.5068 39.12 79.0268 39.36C79.5468 39.6 80.0868 39.62 80.6468 39.42C81.2068 39.22 81.6268 38.86 81.9068 38.34C81.9468 38.26 82.2068 37.68 82.6868 36.6C83.2068 35.52 83.8268 34.18 84.5468 32.58C85.2668 30.98 85.8668 29.66 86.3468 28.62C87.8668 29.62 88.7268 30.58 88.9268 31.5C89.0868 32.38 88.5868 34 87.4268 36.36C86.3868 38.48 85.7668 40.3 85.5668 41.82C85.3268 43.46 85.5668 44.78 86.2868 45.78C87.1268 47.06 88.4868 47.7 90.3668 47.7ZM100.944 62.7C102.904 62.7 104.804 61.26 106.644 58.38C108.804 55.1 110.204 51.2 110.844 46.68C111.044 45.08 111.144 43.64 111.144 42.36C112.184 43.4 113.324 43.98 114.564 44.1C117.324 44.34 120.324 42.28 123.564 37.92C123.924 37.44 124.044 36.92 123.924 36.36C123.844 35.76 123.584 35.28 123.144 34.92C122.664 34.6 122.124 34.48 121.524 34.56C120.964 34.64 120.504 34.92 120.144 35.4C118.824 37.2 117.624 38.46 116.544 39.18C115.904 39.7 115.384 39.92 114.984 39.84C114.624 39.8 114.144 39.4 113.544 38.64C113.144 38.12 112.524 36.96 111.684 35.16C111.204 34.04 110.684 33.04 110.124 32.16C109.764 31.56 109.344 31.08 108.864 30.72C110.304 30.12 111.764 29.32 113.244 28.32C115.044 27.04 116.764 25.36 118.404 23.28C120.924 20.16 122.864 16.56 124.224 12.48C125.104 9.88 125.504 7.62 125.424 5.7C125.264 3.34 124.444 1.76 122.964 0.959998C121.684 0.319997 120.344 0.439997 118.944 1.32C117.904 1.92 116.844 2.98 115.764 4.5C113.404 7.86 110.844 12.32 108.084 17.88C105.324 23.44 103.284 28.26 101.964 32.34C99.9637 38.5 98.5637 44.16 97.7637 49.32C96.8037 55.48 96.9637 59.48 98.2437 61.32C98.9237 62.24 99.8237 62.7 100.944 62.7ZM121.044 5.04C121.124 5.44 121.164 5.9 121.164 6.42C121.084 7.9 120.764 9.48 120.204 11.16C119.204 14.12 117.724 16.96 115.764 19.68C113.844 22.4 111.604 24.48 109.044 25.92C112.484 18.04 115.884 11.72 119.244 6.96C119.924 6 120.524 5.36 121.044 5.04ZM105.624 34.86C106.304 36.86 106.704 38.9 106.824 40.98C106.944 43.02 106.844 44.88 106.524 46.56C106.204 48.24 105.884 49.58 105.564 50.58C105.244 51.62 104.904 52.56 104.544 53.4C103.784 55 103.024 56.26 102.264 57.18C102.064 57.42 101.804 57.7 101.484 58.02C101.204 56.42 101.364 53.68 101.964 49.8C102.844 44.64 104.064 39.66 105.624 34.86ZM131.928 18.96C132.728 18.96 133.328 18.66 133.728 18.06L133.788 17.94L134.028 17.58C134.348 17.1 134.448 16.58 134.328 16.02C134.248 15.42 133.968 14.96 133.488 14.64C133.008 14.32 132.468 14.22 131.868 14.34C131.308 14.42 130.848 14.7 130.488 15.18L130.308 15.48L130.188 15.6C129.948 16 129.828 16.42 129.828 16.86C129.828 17.62 130.128 18.2 130.728 18.6C131.088 18.84 131.488 18.96 131.928 18.96ZM125.808 47.28C128.128 47.28 130.308 46.42 132.348 44.7C134.468 42.82 136.308 40.06 137.868 36.42C138.068 35.86 138.048 35.32 137.808 34.8C137.608 34.24 137.248 33.86 136.728 33.66C136.208 33.42 135.668 33.42 135.108 33.66C134.548 33.86 134.148 34.22 133.908 34.74C131.628 40.26 128.928 43.02 125.808 43.02C124.648 43.02 123.888 42.68 123.528 42C123.408 41.76 123.328 41.48 123.288 41.16C123.248 40.8 123.288 40.22 123.408 39.42C123.528 38.58 123.788 37.64 124.188 36.6C124.628 35.52 125.328 34.14 126.288 32.46C127.248 30.74 128.448 28.86 129.888 26.82C130.208 26.34 130.328 25.82 130.248 25.26C130.168 24.66 129.888 24.2 129.408 23.88C128.928 23.52 128.388 23.4 127.788 23.52C127.188 23.6 126.728 23.88 126.408 24.36C119.928 33.52 117.708 40.04 119.748 43.92C120.388 45.12 121.368 46.04 122.688 46.68C123.688 47.08 124.728 47.28 125.808 47.28ZM141.431 48.36C144.311 48.36 147.131 47.48 149.891 45.72C153.211 43.68 155.671 40.78 157.271 37.02C157.471 36.46 157.451 35.92 157.211 35.4C157.011 34.84 156.651 34.46 156.131 34.26C155.571 34.02 155.011 34.02 154.451 34.26C153.931 34.46 153.551 34.84 153.311 35.4C152.071 38.28 150.271 40.46 147.911 41.94C145.591 43.38 143.431 44.1 141.431 44.1C140.551 44.1 139.671 43.92 138.791 43.56C137.911 43.16 137.291 42.6 136.931 41.88C136.611 41.32 136.491 40.68 136.571 39.96C142.251 38.88 146.291 37.38 148.691 35.46C151.131 33.54 152.551 31.58 152.951 29.58C153.191 28.3 153.111 27.16 152.711 26.16C152.351 25.04 151.711 24.18 150.791 23.58C149.151 22.5 147.171 22.3 144.851 22.98C141.971 23.9 139.211 26.18 136.571 29.82C134.491 32.66 133.171 35.3 132.611 37.74C132.051 40.1 132.231 42.14 133.151 43.86C133.911 45.38 135.071 46.5 136.631 47.22C138.231 47.98 139.831 48.36 141.431 48.36ZM147.311 26.88C147.831 26.88 148.211 26.96 148.451 27.12C148.811 27.36 148.911 27.88 148.751 28.68C148.511 29.88 147.511 31.08 145.751 32.28C143.991 33.48 141.451 34.48 138.131 35.28C138.691 34.24 139.331 33.24 140.051 32.28C142.091 29.44 144.091 27.7 146.051 27.06C146.531 26.94 146.951 26.88 147.311 26.88ZM160.243 48.96C163.443 48.96 165.743 47.9 167.143 45.78C169.623 42.1 169.083 35.78 165.523 26.82C165.243 26.02 165.103 25.58 165.103 25.5C165.623 23.54 165.423 22.18 164.503 21.42C163.663 20.62 162.743 20.58 161.743 21.3C160.903 21.86 160.523 22.9 160.603 24.42C160.603 24.5 160.603 24.62 160.603 24.78C160.643 24.94 160.663 25.06 160.663 25.14C160.543 25.54 160.363 25.94 160.123 26.34C158.443 29.78 155.423 33.5 151.063 37.5C150.623 37.9 150.403 38.4 150.403 39C150.363 39.56 150.543 40.06 150.943 40.5C151.343 40.94 151.843 41.18 152.443 41.22C153.003 41.22 153.503 41.02 153.943 40.62C156.543 38.26 158.703 36 160.423 33.84C161.223 32.8 161.903 31.8 162.463 30.84C163.223 33 163.763 34.96 164.083 36.72C164.643 39.92 164.483 42.14 163.603 43.38C163.083 44.26 161.963 44.7 160.243 44.7C159.283 44.7 158.503 44.6 157.903 44.4C157.303 44.16 156.923 43.94 156.763 43.74C156.603 43.54 156.423 43.26 156.223 42.9C155.943 42.38 155.523 42.04 154.963 41.88C154.403 41.68 153.863 41.72 153.343 42C152.823 42.28 152.483 42.7 152.323 43.26C152.123 43.78 152.163 44.32 152.443 44.88C153.883 47.6 156.483 48.96 160.243 48.96Z" fill="#FF1F68"/>
</svg>
